<svg xmlns="http://www.w3.org/2000/svg" width="33" height="26"><path d="M31.816 19.043H6.609a1.123 1.123 0 01-1.13-1.1V4.69C5.48 3.2 4.687 2.207 3.5 2.207H1.129A1.119 1.119 0 010 1.1 1.119 1.119 0 011.129 0h2.428c2.488 0 4.182 1.931 4.182 4.637v12.177H31.87a1.116 1.116 0 11-.054 2.229zM12.573 26a3.2 3.2 0 113.275-3.2 3.238 3.238 0 01-3.275 3.2zm0-4.2a.993.993 0 101.016.992.938.938 0 00-1.016-.992zM25.792 26a3.2 3.2 0 113.275-3.2 3.238 3.238 0 01-3.275 3.2zm0-4.2a.993.993 0 101.016.992 1 1 0 00-1.016-.992z" fill-rule="evenodd" fill="#ed2126"/><rect x="11" y="6" width="17" height="10" rx="2" ry="2" stroke="#ed2126" stroke-linejoin="round" stroke-width="2" fill="none"/></svg>