<svg xmlns="http://www.w3.org/2000/svg" width="29" height="19" viewBox="0 0 29 19">
  <defs>
    <style>
      .cls-1 {
        fill: #fff;
        fill-rule: evenodd;
      }
    </style>
  </defs>
  <path class="cls-1" d="M344.857,1488.77c-0.223.28-2.974,2.8-4.256,4.23h-5.935a2.685,2.685,0,0,0-2.666,2.69v8.81a2.5,2.5,0,0,0,2.48,2.5h13.892a2.684,2.684,0,0,0,2.666-2.69v-3.21a0.191,0.191,0,0,0-.2-0.19l-1.18.14a0.184,0.184,0,0,0-.163.19v0.38a0.185,0.185,0,0,1-.186.19H333.523a0.186,0.186,0,0,1-.187-0.19v-5.94a1.092,1.092,0,0,1,1.084-1.1h14.163a0.915,0.915,0,0,1,.866.67v0.01a6.033,6.033,0,0,1-2.076,1.53,0.142,0.142,0,0,1-.06.02c-0.38.04-4.051,0.47-4.051,2.45a1.426,1.426,0,0,0,.006.16s0.132,1.58,4.592.27h0.03l4.942-.58a0.032,0.032,0,0,0,.024-0.01,11.134,11.134,0,0,0,4.5-2.39,0.2,0.2,0,0,1,.127-0.05h0.427c0.012,0,.018,0,0.018.02v0.15a0.67,0.67,0,0,0,.668.67h1.74a0.67,0.67,0,0,0,.668-0.67v-7.14a0.679,0.679,0,0,0-.668-0.68H358.6a0.679,0.679,0,0,0-.668.68c0,0.01-.006.01-0.018,0.01-2.179-.23-9.63-1.08-10.214-1.54a0.558,0.558,0,0,0-.06-0.03C347.373,1488.05,345.717,1487.66,344.857,1488.77Zm4.46,15.42a0.169,0.169,0,0,1,.168.17,1.081,1.081,0,0,1-1.071,1.08H334.408a1.082,1.082,0,0,1-1.072-1.08,0.167,0.167,0,0,1,.169-0.17h15.812Z" transform="translate(-332 -1488)"/>
</svg>
