<svg xmlns="http://www.w3.org/2000/svg" width="29" height="19"><path d="M12.857.77c-.223.28-2.974 2.8-4.256 4.23H2.666A2.685 2.685 0 000 7.69v8.81A2.5 2.5 0 002.48 19h13.892a2.684 2.684 0 002.666-2.69V13.1a.191.191 0 00-.2-.19l-1.18.14a.184.184 0 00-.163.19v.38a.185.185 0 01-.186.19H1.523a.186.186 0 01-.187-.19V7.68a1.092 1.092 0 011.084-1.1h14.163a.915.915 0 01.866.67v.01a6.033 6.033 0 01-2.076 1.53.142.142 0 01-.06.02c-.38.04-4.051.47-4.051 2.45a1.426 1.426 0 00.006.16s.132 1.58 4.592.27h.03l4.942-.58a.032.032 0 00.024-.01 11.134 11.134 0 004.5-2.39.2.2 0 01.127-.05h.427c.012 0 .018 0 .018.02v.15a.67.67 0 00.668.67h1.74a.67.67 0 00.668-.67V1.69a.679.679 0 00-.668-.68H26.6a.679.679 0 00-.668.68c0 .01-.006.01-.018.01C23.735 1.47 16.284.62 15.7.16a.558.558 0 00-.06-.03c-.267-.08-1.923-.47-2.783.64zm4.46 15.42a.169.169 0 01.168.17 1.081 1.081 0 01-1.071 1.08H2.408a1.082 1.082 0 01-1.072-1.08.167.167 0 01.169-.17h15.812z" fill="#fff" fill-rule="evenodd"/></svg>