<svg xmlns="http://www.w3.org/2000/svg" width="33" height="26"><path d="M31.816 19.041H6.609a1.122 1.122 0 01-1.129-1.1V4.688c0-1.491-.793-2.483-1.977-2.483H1.129a1.104 1.104 0 110-2.208h2.428c2.488 0 4.182 1.931 4.182 4.638v12.177H31.87a1.115 1.115 0 11-.054 2.229zM12.573 26a3.2 3.2 0 113.275-3.2 3.238 3.238 0 01-3.275 3.2zm0-4.2a.993.993 0 101.016.992.938.938 0 00-1.016-.992zm13.22 4.2a3.2 3.2 0 113.275-3.2 3.238 3.238 0 01-3.275 3.2zm0-4.2a.993.993 0 101.015.992 1 1 0 00-1.015-.992zM13 6h13a2 2 0 012 2v6a2 2 0 01-2 2H13a2 2 0 01-2-2V8a2 2 0 012-2z" fill="#000b2c" fill-rule="evenodd"/></svg>