<svg xmlns="http://www.w3.org/2000/svg" width="21" height="15.969"><path data-name="Forma 1 copy 6" d="M10.832 13.174V3.766a.339.339 0 00-.677 0v9.408a.339.339 0 00.677 0zM20.651 1.4a9.339 9.339 0 01-2.552-.591 13.046 13.046 0 00-3.958-.822 4.272 4.272 0 00-3.165 1.22 3.875 3.875 0 00-.483.6 3.863 3.863 0 00-.482-.6 4.273 4.273 0 00-3.166-1.22 13.039 13.039 0 00-3.957.822A9.337 9.337 0 01.335 1.4a.327.327 0 00-.338.315V14.4a.327.327 0 00.338.315 9.756 9.756 0 002.774-.626 12.484 12.484 0 013.736-.788 3.582 3.582 0 012.666 1.014.356.356 0 00.478.02.3.3 0 00.022-.445 4.273 4.273 0 00-3.166-1.22 13.033 13.033 0 00-3.957.822 11.992 11.992 0 01-2.214.573V2.014a11.868 11.868 0 002.435-.61A12.493 12.493 0 016.845.616a3.315 3.315 0 013.325 2.012.346.346 0 00.647 0A3.344 3.344 0 0114.141.616a12.5 12.5 0 013.737.788 11.852 11.852 0 002.435.61v12.057A12.006 12.006 0 0118.1 13.5a13.034 13.034 0 00-3.958-.822 4.27 4.27 0 00-3.165 1.22.3.3 0 00.022.445.356.356 0 00.478-.02 3.581 3.581 0 012.665-1.014 12.491 12.491 0 013.737.788 9.749 9.749 0 002.773.626.328.328 0 00.339-.315V1.715a.328.328 0 00-.34-.315zm0 13.951a9.349 9.349 0 01-2.552-.592 13.043 13.043 0 00-3.958-.822 4.306 4.306 0 00-3.06 1.117H9.906a4.309 4.309 0 00-3.061-1.117 13.036 13.036 0 00-3.957.822 9.346 9.346 0 01-2.553.592.316.316 0 100 .63 9.752 9.752 0 002.774-.626 12.487 12.487 0 013.736-.787 3.582 3.582 0 012.666 1.014.35.35 0 00.25.1h1.465a.35.35 0 00.25-.1 3.58 3.58 0 012.665-1.014 12.481 12.481 0 013.736.787 9.759 9.759 0 002.774.626.316.316 0 100-.631z" fill="#9fb1c6" fill-rule="evenodd"/></svg>