<svg xmlns="http://www.w3.org/2000/svg" width="25" height="25"><path d="M19.486 7.22a1.942 1.942 0 010-3.882c1.07 0 1.941.871 1.941 1.941s-.87 1.941-1.94 1.941zm-6.725 11.588a6.576 6.576 0 01-6.568-6.569 6.576 6.576 0 016.568-6.568 6.576 6.576 0 016.568 6.568 6.576 6.576 0 01-6.568 6.569zM7.252.228A6.51 6.51 0 00.75 6.732v11.017a6.51 6.51 0 006.502 6.502H18.27a6.51 6.51 0 006.503-6.502V6.73A6.51 6.51 0 0018.269.229z"/><path d="M12.76 7.08a5.166 5.166 0 00-5.16 5.16 5.166 5.166 0 005.16 5.16 5.166 5.166 0 005.16-5.16 5.166 5.166 0 00-5.16-5.16z"/></svg>