<svg xmlns="http://www.w3.org/2000/svg" width="18" height="26"><path data-name="Forma 1" d="M9 6.16a4.088 4.088 0 103.98 4.087A4.034 4.034 0 009 6.16zm0 6.344a2.258 2.258 0 112.2-2.257A2.233 2.233 0 019 12.5zm6.609-9.454A8.822 8.822 0 008.732 0C3 0 0 4.788 0 9.515c0 6.191 8.242 15.753 8.6 16.165a.852.852 0 00.653.319h.015a.914.914 0 00.653-.3 45.221 45.221 0 004.01-5.292c2.7-4.148 4.07-7.823 4.07-10.9a10 10 0 00-2.392-6.457zm-6.327 20.6c-1.931-2.379-7.485-9.592-7.485-14.151 0-3.69 2.183-7.67 6.95-7.67a7.418 7.418 0 017.471 7.67c0 5.369-5.095 11.941-6.936 14.152z" fill="#ed2126" fill-rule="evenodd"/></svg>